<svg xmlns="http://www.w3.org/2000/svg" viewBox="0 0 24 24" fill="currentColor" aria-hidden="true">
  <!-- steam -->
  <path d="M8 3c0 .6-.4 1-.8 1.4-.5.5-.8 1-.8 1.6s.3 1.1.8 1.6c.4.4.8.8.8 1.4" stroke="currentColor" stroke-width="1.5" stroke-linecap="round" fill="none"/>
  <path d="M12 3c0 .6-.4 1-.8 1.4-.5.5-.8 1-.8 1.6s.3 1.1.8 1.6c.4.4.8.8.8 1.4" stroke="currentColor" stroke-width="1.5" stroke-linecap="round" fill="none"/>
  <!-- mug body -->
  <path d="M3 10h14v7a4 4 0 01-4 4H7a4 4 0 01-4-4v-7z"/>
  <!-- handle -->
  <path d="M17 12h1.5a2.5 2.5 0 010 5H17" stroke="currentColor" stroke-width="1.5" stroke-linecap="round" fill="none"/>
</svg>
